<?xml version="1.0" encoding="utf-8"?>
<svg width="400px" height="400px" viewBox="0 0 400 400" version="1.1" xmlns:xlink="http://www.w3.org/1999/xlink" xmlns="http://www.w3.org/2000/svg">
  <defs>
    <path d="M0 200C0 89.543 89.543 0 200 0C310.457 0 400 89.543 400 200C400 310.457 310.457 400 200 400C89.543 400 0 310.457 0 200Z" id="path_1" />
    <clipPath id="clip_1">
      <use xlink:href="#path_1" />
    </clipPath>
  </defs>
  <g id="SN">
    <g id="Oval">
      <use stroke="none" fill="#FFFFFF" xlink:href="#path_1" fill-rule="evenodd" />
      <g clip-path="url(#clip_1)">
        <use xlink:href="#path_1" fill="none" stroke="#101830" stroke-width="50" />
      </g>
    </g>
    <g id="SN" fill="#101830" transform="translate(71 89)">
      <path d="M83.6797 71.3544Q89.8977 75.7614 90.7429 83.6697L112.295 83.6697Q112.114 73.2258 106.469 65.1665Q100.825 57.1072 90.8636 52.5493Q80.9027 47.9915 67.7422 47.9915Q54.7628 47.9915 44.4698 52.5493Q34.1768 57.1072 28.2607 65.3175Q22.3445 73.5277 22.3445 84.4545Q22.3445 97.7358 31.1886 105.735Q40.0327 113.734 55.3061 117.658L69.3722 121.28Q79.3935 123.815 85.4606 127.528Q91.5277 131.241 91.5881 138.425Q91.5277 146.333 84.706 151.193Q77.8842 156.053 66.897 156.053Q56.3928 156.053 49.0881 151.283Q41.7834 146.514 41.1193 136.795L19.0845 136.795Q19.7486 155.207 32.6072 165.199Q45.4659 175.19 67.0781 175.19Q89.294 175.19 101.609 165.078Q113.925 154.966 113.985 138.606Q113.985 127.86 108.763 120.767Q103.541 113.673 95.2404 109.417Q86.9396 105.161 77.6428 102.988L66.0518 100.09Q60.9808 98.8828 56.1211 96.8906Q51.2614 94.8984 48.1222 91.5479Q44.983 88.1974 45.0433 83.066Q45.1037 76.0632 51.0199 71.5053Q56.9361 66.9474 67.4403 66.9474Q77.4616 66.9474 83.6797 71.3544ZM235.509 173.318L235.509 49.6818L213.232 49.6818L213.232 133.957L212.146 133.957L153.95 49.6818L133.907 49.6818L133.907 173.318L156.304 173.318L156.304 89.103L157.33 89.103L215.587 173.318L235.509 173.318Z" />
    </g>
  </g>
</svg>